<?xml version="1.0" standalone="no"?>
<!DOCTYPE svg PUBLIC "-//W3C//DTD SVG 20010904//EN"
 "http://www.w3.org/TR/2001/REC-SVG-20010904/DTD/svg10.dtd">
<svg version="1.0" xmlns="http://www.w3.org/2000/svg"
 width="500.000000pt" height="500.000000pt" viewBox="0 0 500.000000 500.000000"
 preserveAspectRatio="xMidYMid meet">
<metadata>
Created by potrace 1.16, written by Peter Selinger 2001-2019
</metadata>
<g transform="translate(0.000000,500.000000) scale(0.100000,-0.100000)"
fill="#000000" stroke="none">
<path d="M2445 4196 l-60 -23 -3 -81 -3 -82 -44 0 -45 0 0 -70 0 -70 44 0 43
0 5 -265 4 -264 39 -57 c67 -97 160 -123 333 -93 l64 11 -6 37 c-3 20 -6 50
-6 66 -1 53 -10 58 -76 40 -76 -21 -127 -7 -161 44 -22 33 -23 41 -23 257 l0
224 105 0 105 0 0 70 0 70 -105 0 -105 0 0 105 c0 122 2 120 -105 81z"/>
<path d="M705 4011 c-115 -16 -228 -101 -283 -212 -25 -51 -27 -62 -27 -199 0
-135 2 -149 26 -200 36 -77 125 -163 197 -191 114 -44 314 -32 415 24 34 19
38 25 33 51 -10 50 -48 116 -67 116 -10 0 -21 -5 -24 -10 -8 -13 -57 -33 -119
-49 -65 -16 -141 0 -203 43 -41 28 -51 42 -70 97 -52 149 -7 301 106 363 66
36 154 36 229 1 30 -14 61 -25 70 -25 21 1 72 80 72 111 0 54 -207 101 -355
80z"/>
<path d="M1110 3991 c0 -10 9 -40 21 -65 11 -26 26 -68 33 -94 17 -59 38 -121
87 -247 38 -98 80 -219 120 -342 19 -60 21 -63 52 -63 32 0 33 2 86 128 29 70
75 172 101 227 25 55 51 111 57 125 l11 25 12 -30 c6 -16 27 -60 46 -98 19
-37 34 -74 34 -83 0 -10 24 -71 54 -138 29 -67 56 -129 60 -139 4 -14 14 -17
38 -15 32 3 34 6 66 98 18 52 37 109 41 126 5 18 16 47 26 65 17 35 57 142 81
219 29 94 70 206 87 237 9 18 17 43 17 58 0 25 -1 25 -77 25 l-78 0 -28 -58
c-15 -31 -27 -62 -27 -68 0 -6 -10 -33 -22 -60 -11 -27 -24 -62 -29 -79 -6
-26 -31 -103 -62 -188 -7 -19 -13 -25 -20 -18 -10 10 -16 23 -59 141 -14 36
-32 79 -41 97 -9 18 -17 41 -17 53 0 20 -26 80 -39 90 -4 3 -13 24 -19 48 -12
38 -16 42 -46 42 -25 0 -35 -6 -44 -25 -7 -14 -12 -30 -12 -35 0 -5 -16 -44
-36 -87 -60 -131 -101 -232 -116 -285 -19 -68 -24 -58 -102 182 -23 74 -51
161 -60 193 l-17 57 -90 0 c-80 0 -89 -2 -89 -19z"/>
<path d="M4595 3570 c-10 -11 -22 -17 -26 -14 -5 3 -12 -2 -15 -10 -3 -9 -11
-16 -18 -16 -6 0 -27 -20 -46 -45 -19 -24 -41 -44 -47 -45 -7 0 -13 -5 -13
-10 0 -6 -12 -29 -27 -53 -14 -23 -25 -43 -24 -45 1 -1 -5 -9 -13 -17 -16 -16
-34 -90 -43 -172 -3 -29 -7 -53 -9 -53 -2 0 -29 7 -61 15 -31 8 -90 15 -131
15 -87 0 -215 -27 -206 -42 4 -6 2 -8 -3 -5 -15 9 -83 -20 -90 -38 -3 -8 -14
-15 -24 -15 -10 0 -18 -6 -16 -12 1 -7 -8 -14 -21 -16 -12 -2 -20 -7 -17 -12
3 -5 -15 -23 -39 -40 -25 -17 -49 -37 -53 -44 -8 -14 -73 -92 -104 -126 -8 -9
-19 -24 -22 -34 -4 -9 -11 -14 -17 -11 -5 3 -10 -3 -10 -14 0 -11 -9 -25 -20
-31 -11 -6 -19 -16 -17 -23 1 -7 -4 -11 -10 -10 -7 2 -13 -6 -13 -18 0 -13 -8
-23 -21 -26 -11 -3 -18 -11 -15 -19 3 -7 -6 -20 -20 -29 -14 -9 -22 -20 -19
-25 3 -5 -4 -14 -15 -20 -11 -6 -20 -16 -20 -22 0 -6 -10 -21 -22 -34 -13 -13
-39 -42 -58 -65 -19 -23 -54 -61 -77 -83 -24 -23 -43 -47 -43 -53 0 -6 -8 -17
-17 -24 -14 -12 -16 -12 -8 0 5 10 4 12 -4 7 -6 -4 -9 -11 -6 -16 7 -11 -20
-32 -30 -22 -5 4 -5 2 -2 -4 4 -6 -5 -22 -18 -34 -14 -13 -25 -19 -25 -14 0 5
-24 -15 -53 -44 -85 -86 -102 -102 -114 -102 -7 0 -19 -10 -27 -22 -9 -12 -16
-18 -16 -13 0 5 -7 -1 -16 -13 -8 -12 -22 -22 -30 -22 -8 0 -14 -4 -14 -10 0
-5 -7 -10 -15 -10 -9 0 -18 -7 -21 -15 -4 -8 -10 -12 -15 -9 -5 3 -12 -2 -15
-10 -3 -9 -10 -13 -15 -10 -5 3 -12 -2 -15 -10 -3 -9 -10 -13 -15 -10 -5 3 -9
0 -9 -5 0 -6 -9 -11 -21 -11 -13 0 -18 -4 -13 -12 4 -7 3 -8 -4 -4 -14 8 -73
-24 -66 -36 5 -8 4 -9 -31 -13 -25 -3 -108 -44 -117 -59 -5 -6 -8 -7 -8 -1 0
6 -3 6 -8 -1 -11 -15 -91 -47 -247 -98 -230 -75 -456 -128 -835 -197 -177 -32
-240 -50 -240 -68 0 -6 -7 -7 -17 -4 -10 4 -14 2 -10 -4 4 -6 0 -16 -8 -23 -8
-7 -15 -9 -15 -4 0 14 -52 -41 -81 -85 -16 -24 -26 -48 -23 -53 4 -5 -3 -19
-14 -31 -11 -12 -31 -51 -43 -87 -21 -57 -24 -84 -24 -225 0 -142 3 -168 23
-228 13 -37 28 -65 33 -61 5 3 9 -6 9 -21 0 -14 7 -28 15 -31 8 -4 12 -10 9
-15 -3 -5 2 -9 10 -9 9 0 16 -5 16 -11 0 -11 129 -140 185 -186 41 -34 119
-59 225 -74 146 -21 625 -18 815 5 235 28 561 94 575 116 3 4 46 20 95 35 86
26 139 46 177 66 10 5 22 9 28 9 20 0 275 125 291 142 9 10 19 15 23 11 3 -3
6 -1 6 6 0 7 6 11 13 8 17 -6 49 12 42 24 -6 8 -2 10 35 13 8 1 14 8 12 15 -2
8 3 11 12 8 10 -4 20 2 26 13 6 11 20 20 31 20 11 0 18 4 15 8 -3 5 8 16 25
26 16 9 29 14 29 10 0 -4 6 -1 13 7 17 21 93 79 104 79 4 0 14 9 21 20 7 12
17 18 22 15 5 -3 17 6 26 20 9 14 30 33 45 41 16 8 29 21 29 29 0 8 8 19 18
24 9 5 37 29 62 54 24 25 47 44 51 42 3 -3 17 7 29 20 13 14 19 25 14 25 -9 0
3 13 86 98 19 19 35 38 36 41 0 3 4 14 9 24 6 15 10 16 16 5 7 -10 9 -10 10 0
1 6 3 17 4 22 1 6 3 15 4 20 0 6 8 10 16 10 8 0 14 3 14 8 -3 20 2 32 15 32 7
0 20 8 27 18 13 15 12 16 -3 3 -12 -9 -18 -10 -18 -2 0 6 11 16 25 21 14 5 25
12 25 15 0 4 -4 3 -10 0 -5 -3 -10 -1 -10 4 0 6 6 11 14 11 8 0 18 5 22 12 4
7 3 8 -4 4 -7 -4 -12 -2 -12 3 0 6 6 11 14 11 8 0 18 5 22 12 4 7 3 8 -4 4 -7
-4 -12 -2 -12 3 0 6 7 11 16 11 8 0 12 4 9 10 -3 5 -1 10 4 10 6 0 11 7 11 15
0 8 5 15 11 15 6 0 9 6 7 12 -3 7 3 21 12 30 9 10 34 53 55 95 21 43 48 94 60
113 12 19 25 48 29 64 4 15 10 26 13 22 8 -8 44 74 37 85 -3 5 -1 9 4 9 10 0
35 50 28 57 -3 3 2 12 10 20 8 9 13 22 10 30 -3 8 -2 12 2 9 4 -2 30 59 56
137 47 136 49 147 49 252 0 112 -18 204 -52 270 -15 30 -17 36 -20 55 0 6 -8
10 -16 10 -8 0 -15 7 -15 15 0 8 -5 15 -11 15 -6 0 -9 7 -5 15 3 9 0 15 -8 15
-13 0 -22 12 -24 33 -1 4 -23 26 -49 49 -27 23 -56 49 -66 57 -14 12 -16 25
-11 66 14 125 45 235 67 235 4 0 5 4 2 10 -7 11 72 100 88 100 5 0 16 8 24 18
10 11 12 12 8 2 -4 -10 -2 -9 8 2 8 10 17 15 20 11 4 -3 7 1 7 11 0 9 4 15 10
11 14 -9 50 32 50 58 0 52 -97 79 -135 37z m-545 -608 c-4 -16 -19 -47 -34
-70 -14 -23 -26 -45 -26 -50 0 -4 -8 -17 -19 -28 -10 -11 -24 -30 -30 -42 -7
-13 -16 -20 -21 -17 -5 3 -16 -8 -26 -24 -10 -16 -28 -34 -41 -40 -12 -6 -23
-17 -23 -25 0 -9 -9 -20 -20 -26 -11 -6 -20 -8 -20 -6 0 3 -11 -6 -25 -20 -14
-14 -25 -31 -25 -39 0 -8 -4 -15 -9 -15 -5 0 -17 -19 -26 -42 -14 -33 -18 -75
-19 -178 -2 -148 -2 -148 -31 -202 -25 -46 -144 -170 -156 -162 -5 3 -9 -2 -9
-10 0 -9 -9 -16 -20 -16 -11 0 -20 -4 -20 -9 0 -5 -11 -12 -25 -15 -13 -3 -35
-16 -48 -29 -12 -12 -29 -23 -37 -25 -8 -2 -18 -9 -22 -15 -4 -6 -10 -8 -14
-5 -10 10 -66 -21 -59 -32 4 -6 -3 -10 -15 -10 -12 0 -19 -4 -16 -9 5 -7 -14
-21 -34 -25 -14 -3 -30 -18 -26 -25 3 -4 -3 -17 -12 -27 -19 -20 -36 -54 -34
-66 1 -5 -2 -8 -7 -8 -12 0 -41 -123 -45 -199 -1 -8 -10 -19 -21 -25 -11 -6
-25 -17 -31 -25 -6 -8 -16 -11 -22 -7 -6 3 -18 -4 -26 -16 -9 -12 -18 -19 -22
-15 -6 6 -83 -28 -94 -42 -3 -3 -9 -6 -15 -6 -20 -1 -95 -28 -95 -35 0 -11
-128 -29 -250 -35 -105 -4 -254 -31 -297 -54 -186 -95 -317 -154 -366 -166
-78 -19 -220 -18 -272 0 -21 8 -41 12 -43 10 -2 -2 -12 5 -23 16 -11 11 -24
17 -28 14 -5 -2 -12 2 -15 11 -3 8 -10 12 -16 9 -6 -3 -13 1 -16 9 -3 8 -26
23 -50 32 -36 14 -67 16 -166 12 -68 -3 -135 -11 -150 -17 -23 -9 -28 -8 -28
4 0 8 5 15 10 15 6 0 10 6 10 14 0 19 52 70 86 84 25 10 347 76 499 102 55 9
307 69 427 101 48 13 75 25 71 32 -3 6 -1 7 5 3 15 -9 183 45 176 56 -3 4 1 5
9 2 8 -3 21 1 28 9 8 7 19 12 25 10 7 -2 18 3 27 11 8 8 17 12 21 9 3 -3 11
-1 18 5 7 5 49 28 93 51 44 23 98 52 120 66 22 13 55 32 73 41 17 9 32 20 32
25 0 5 7 9 15 9 8 0 15 5 15 10 0 6 7 10 15 10 9 0 18 7 21 15 4 8 10 12 15 9
5 -3 12 2 15 10 3 9 12 16 20 16 7 0 18 9 24 21 6 11 17 18 23 16 7 -2 16 6
22 17 6 12 21 22 33 24 12 2 22 10 22 17 0 8 15 24 33 37 40 28 251 240 274
274 9 14 27 30 39 34 12 5 24 19 26 31 2 12 12 27 23 33 24 13 35 27 29 37 -2
4 8 14 21 23 14 9 23 21 20 26 -3 5 4 14 15 20 11 6 20 17 20 25 0 8 9 19 20
25 11 6 20 17 20 26 0 8 7 17 15 20 8 4 15 13 15 20 0 8 7 17 15 20 8 4 15 11
15 18 0 6 14 26 30 44 17 18 30 37 30 42 0 5 14 18 30 30 17 12 28 25 26 29
-3 4 24 36 59 71 36 36 65 60 65 55 0 -6 7 -2 15 9 21 27 93 66 170 92 55 18
55 18 45 -14z m243 -7 c12 -8 27 -15 35 -15 38 0 192 -152 192 -190 0 -6 -9
-15 -20 -22 -11 -7 -20 -17 -20 -22 0 -5 -8 -15 -17 -23 -12 -10 -13 -12 -3
-8 13 6 13 5 0 -7 -8 -7 -16 -20 -18 -28 -2 -8 -8 -17 -12 -20 -5 -3 -17 -23
-27 -45 -10 -22 -28 -57 -41 -77 -13 -21 -21 -42 -18 -47 3 -5 -1 -12 -10 -15
-10 -4 -13 -13 -9 -27 4 -13 3 -19 -3 -15 -9 6 -72 -122 -72 -147 0 -7 -4 -17
-9 -23 -5 -5 -21 -43 -36 -84 -41 -115 -86 -243 -90 -260 -2 -8 -9 -31 -15
-50 -6 -19 -19 -74 -30 -123 -22 -100 -64 -184 -121 -241 -21 -22 -39 -44 -39
-48 0 -4 -7 -8 -15 -8 -8 0 -15 -4 -15 -9 0 -5 -8 -12 -18 -15 -9 -3 -22 -16
-27 -28 -6 -13 -19 -23 -30 -23 -11 0 -20 -7 -20 -15 0 -8 -10 -17 -23 -20
-13 -3 -22 -9 -20 -15 4 -14 -50 -30 -197 -60 -69 -14 -148 -34 -175 -44 -63
-24 -140 -69 -140 -81 0 -6 -6 -10 -14 -10 -7 0 -21 -11 -30 -25 -9 -14 -21
-24 -26 -22 -5 1 -30 -20 -56 -48 -25 -27 -40 -41 -33 -30 11 16 8 15 -17 -5
-17 -14 -30 -28 -28 -31 2 -3 -9 -17 -24 -30 -21 -19 -24 -20 -13 -4 8 11 -6
-1 -30 -27 -25 -27 -49 -48 -53 -48 -5 0 -16 -7 -25 -15 -38 -35 -79 -63 -121
-80 -40 -17 -85 -20 -385 -26 -187 -4 -351 -10 -365 -14 -82 -23 -120 -38
-120 -46 0 -6 -4 -7 -10 -4 -5 3 -10 1 -10 -4 0 -6 -5 -11 -10 -11 -6 0 -18
-8 -28 -18 -10 -9 -28 -24 -40 -32 -12 -8 -22 -19 -22 -24 0 -18 -42 -55 -56
-49 -9 3 -14 -1 -14 -12 0 -9 -6 -15 -12 -12 -7 2 -25 -2 -39 -9 -64 -32 -300
-27 -513 12 -78 15 -93 21 -122 51 -19 19 -32 39 -28 44 3 5 0 9 -6 9 -6 0 -8
4 -5 10 3 5 2 10 -3 10 -21 0 -46 125 -45 220 1 141 2 142 120 168 54 11 118
24 142 27 47 6 151 -12 151 -27 0 -5 5 -6 10 -3 6 3 13 0 16 -8 3 -9 16 -18
30 -21 13 -4 24 -11 24 -17 0 -6 5 -7 10 -4 6 3 10 2 10 -4 0 -34 234 -61 359
-42 84 13 238 73 262 101 9 11 19 16 23 13 3 -4 6 -1 6 6 0 7 4 10 9 7 5 -4
38 7 73 24 34 16 69 30 76 30 7 0 11 3 9 8 -3 4 5 8 16 8 12 1 54 9 92 18 39
9 115 16 172 16 109 0 194 13 230 36 12 8 27 14 32 14 5 0 22 5 38 11 15 6 29
10 31 9 2 -1 14 6 28 14 13 9 24 14 24 11 0 -4 7 1 16 9 8 9 20 14 25 11 5 -4
9 -2 9 2 0 5 23 19 51 33 28 13 64 36 79 52 16 15 34 28 40 28 6 0 9 4 6 9 -3
4 3 16 14 26 11 10 22 37 25 64 15 116 43 193 82 224 13 10 23 25 23 34 0 9 6
13 14 10 7 -3 20 3 29 14 9 10 29 21 44 25 46 11 120 52 153 84 32 32 45 38
35 18 -4 -7 6 1 20 17 15 17 24 23 20 15 -4 -8 18 13 50 48 31 34 61 60 66 56
5 -3 10 0 10 5 1 6 2 15 3 21 0 5 10 16 21 24 11 9 16 16 11 16 -6 0 -3 6 6
13 9 6 24 36 33 66 15 45 16 73 11 166 -6 90 -4 120 8 149 8 20 13 36 12 36
-2 0 18 24 45 53 28 28 52 50 55 48 9 -5 94 81 88 90 -3 5 4 14 16 21 11 7 20
18 20 25 0 7 9 17 20 23 11 6 18 15 15 20 -3 5 4 14 15 20 11 6 20 20 20 31 0
11 4 18 9 15 5 -3 19 28 32 69 l24 76 38 -5 c21 -3 48 -12 60 -21z m306 -472
c1 -44 -34 -184 -66 -263 -4 -8 -7 -18 -7 -22 -1 -3 -4 -10 -8 -14 -5 -4 -8
-13 -8 -20 0 -13 -70 -185 -117 -286 -14 -31 -31 -54 -36 -51 -6 3 -7 1 -4 -5
10 -14 -3 -43 -15 -36 -6 4 -9 1 -6 -7 3 -8 -1 -18 -8 -24 -7 -5 -14 -17 -16
-25 -2 -8 -8 -19 -15 -25 -7 -5 -13 -16 -15 -24 -2 -8 -11 -23 -21 -33 -10
-10 -15 -23 -12 -27 2 -5 -2 -11 -10 -15 -8 -3 -12 -12 -9 -21 4 -10 0 -15
-10 -15 -15 0 -21 -12 -17 -33 1 -5 -3 -6 -8 -3 -9 6 -26 -22 -22 -38 1 -4
-10 -19 -24 -32 -14 -12 -25 -29 -25 -35 0 -7 -21 -33 -47 -58 -27 -24 -40
-38 -30 -31 15 11 17 11 11 -4 -3 -9 -12 -16 -19 -16 -8 0 -15 -6 -17 -14 -6
-27 -190 -227 -203 -222 -8 3 -19 -3 -27 -12 -12 -16 -11 -16 6 -2 13 10 17
10 12 2 -4 -7 -25 -24 -47 -38 -22 -13 -37 -29 -34 -34 6 -9 -29 -33 -37 -25
-2 2 -23 -12 -47 -31 -24 -18 -38 -34 -30 -34 12 0 11 -2 -1 -9 -8 -6 -17 -8
-21 -5 -4 2 -14 -8 -23 -21 -9 -14 -21 -23 -25 -20 -5 3 -12 -2 -15 -11 -3 -8
-10 -13 -15 -10 -5 3 -11 -1 -15 -9 -3 -8 -12 -15 -21 -15 -8 0 -15 -5 -15
-11 0 -5 -5 -7 -10 -4 -6 3 -13 -1 -16 -9 -3 -9 -10 -13 -15 -10 -5 3 -9 0 -9
-6 0 -6 -15 -18 -32 -26 -18 -8 -51 -25 -73 -38 -22 -13 -92 -50 -155 -81 -63
-32 -117 -62 -118 -66 -2 -5 -7 -7 -12 -4 -11 7 -170 -56 -170 -67 0 -5 -4 -7
-9 -4 -10 7 -164 -44 -172 -56 -3 -6 -9 -9 -13 -8 -3 1 -64 -12 -134 -29 -241
-58 -524 -91 -795 -91 -181 0 -241 11 -120 23 64 6 131 26 158 48 9 8 50 47
90 87 68 68 78 74 151 94 73 20 104 22 394 23 268 1 324 3 373 18 31 10 57 22
57 28 0 6 5 7 10 4 6 -3 10 -1 10 5 0 6 4 8 10 5 5 -3 22 7 36 22 14 15 33 28
43 28 9 0 16 6 16 13 0 7 7 17 15 22 16 10 49 36 104 85 19 17 53 46 76 65 23
19 54 47 70 63 15 15 33 27 39 27 6 0 15 9 21 20 6 11 17 20 24 20 8 0 17 7
20 16 3 8 10 12 16 9 5 -3 10 -1 10 5 0 6 6 10 13 8 6 -1 37 7 67 19 30 11
110 33 177 49 71 16 119 32 116 37 -3 6 -1 7 5 3 10 -6 84 31 90 46 2 4 10 8
18 8 8 0 14 5 14 10 0 6 11 15 25 20 14 5 25 13 25 18 0 5 33 37 73 72 39 35
71 67 70 72 -2 4 8 15 22 24 14 9 25 23 25 30 0 8 5 14 10 14 6 0 10 7 10 15
0 8 5 15 11 15 15 0 56 95 74 175 38 167 149 492 201 587 8 14 14 33 14 42 0
9 5 16 10 16 6 0 9 3 8 8 -3 15 63 161 93 203 10 14 15 29 11 33 -4 4 2 14 13
22 11 8 21 19 21 24 4 33 8 30 19 -15 7 -27 14 -74 14 -102z"/>
</g>
</svg>
